STARTFONT 2.1
COMMENT Exported by Fony v1.3.6
FONT leaf_5h_skinny
SIZE 5 96 96
FONTBOUNDINGBOX 9 4 0 0
STARTPROPERTIES 6
COPYRIGHT ""
RESOLUTION_X 96
RESOLUTION_Y 96
FONT_ASCENT 5
FONT_DESCENT 0
DEFAULT_CHAR 0
ENDPROPERTIES
CHARS 91
STARTCHAR 032
ENCODING 32
SWIDTH 216 0
DWIDTH 3 0
BBX 0 0 0 0
BITMAP
ENDCHAR
STARTCHAR 033
ENCODING 33
SWIDTH 144 0
DWIDTH 2 0
BBX 1 5 0 0
BITMAP
80
80
80
00
80
ENDCHAR
STARTCHAR 034
ENCODING 34
SWIDTH 288 0
DWIDTH 4 0
BBX 3 2 0 3
BITMAP
A0
A0
ENDCHAR
STARTCHAR 035
ENCODING 35
SWIDTH 432 0
DWIDTH 6 0
BBX 5 5 0 0
BITMAP
50
F8
50
F8
50
ENDCHAR
STARTCHAR 036
ENCODING 36
SWIDTH 432 0
DWIDTH 6 0
BBX 5 5 0 0
BITMAP
88
70
50
70
88
ENDCHAR
STARTCHAR 037
ENCODING 37
SWIDTH 432 0
DWIDTH 6 0
BBX 5 5 0 0
BITMAP
70
88
88
88
70
ENDCHAR
STARTCHAR 038
ENCODING 38
SWIDTH 432 0
DWIDTH 6 0
BBX 5 5 0 0
BITMAP
70
88
A8
88
70
ENDCHAR
STARTCHAR 039
ENCODING 39
SWIDTH 144 0
DWIDTH 2 0
BBX 1 2 0 3
BITMAP
80
80
ENDCHAR
STARTCHAR 040
ENCODING 40
SWIDTH 648 0
DWIDTH 9 0
BBX 0 0 0 0
BITMAP
ENDCHAR
STARTCHAR 041
ENCODING 41
SWIDTH 648 0
DWIDTH 9 0
BBX 0 0 0 0
BITMAP
ENDCHAR
STARTCHAR 042
ENCODING 42
SWIDTH 432 0
DWIDTH 6 0
BBX 5 5 0 0
BITMAP
20
70
F8
70
20
ENDCHAR
STARTCHAR 043
ENCODING 43
SWIDTH 288 0
DWIDTH 4 0
BBX 3 3 0 1
BITMAP
40
E0
40
ENDCHAR
STARTCHAR 044
ENCODING 44
SWIDTH 144 0
DWIDTH 2 0
BBX 1 2 0 0
BITMAP
80
80
ENDCHAR
STARTCHAR 045
ENCODING 45
SWIDTH 216 0
DWIDTH 3 0
BBX 2 1 0 2
BITMAP
C0
ENDCHAR
STARTCHAR 046
ENCODING 46
SWIDTH 144 0
DWIDTH 2 0
BBX 1 1 0 0
BITMAP
80
ENDCHAR
STARTCHAR 047
ENCODING 47
SWIDTH 288 0
DWIDTH 4 0
BBX 3 5 0 0
BITMAP
20
20
40
80
80
ENDCHAR
STARTCHAR 048
ENCODING 48
SWIDTH 288 0
DWIDTH 4 0
BBX 3 5 0 0
BITMAP
40
A0
A0
A0
40
ENDCHAR
STARTCHAR 049
ENCODING 49
SWIDTH 144 0
DWIDTH 2 0
BBX 1 5 0 0
BITMAP
80
80
80
80
80
ENDCHAR
STARTCHAR 050
ENCODING 50
SWIDTH 288 0
DWIDTH 4 0
BBX 3 5 0 0
BITMAP
E0
20
E0
80
E0
ENDCHAR
STARTCHAR 051
ENCODING 51
SWIDTH 288 0
DWIDTH 4 0
BBX 3 5 0 0
BITMAP
E0
20
E0
20
E0
ENDCHAR
STARTCHAR 052
ENCODING 52
SWIDTH 288 0
DWIDTH 4 0
BBX 3 5 0 0
BITMAP
A0
A0
E0
20
20
ENDCHAR
STARTCHAR 053
ENCODING 53
SWIDTH 288 0
DWIDTH 4 0
BBX 3 5 0 0
BITMAP
E0
80
E0
20
E0
ENDCHAR
STARTCHAR 054
ENCODING 54
SWIDTH 288 0
DWIDTH 4 0
BBX 3 5 0 0
BITMAP
E0
80
E0
A0
E0
ENDCHAR
STARTCHAR 055
ENCODING 55
SWIDTH 288 0
DWIDTH 4 0
BBX 3 5 0 0
BITMAP
E0
20
40
40
40
ENDCHAR
STARTCHAR 056
ENCODING 56
SWIDTH 288 0
DWIDTH 4 0
BBX 3 5 0 0
BITMAP
E0
A0
E0
A0
E0
ENDCHAR
STARTCHAR 057
ENCODING 57
SWIDTH 288 0
DWIDTH 4 0
BBX 3 5 0 0
BITMAP
E0
A0
E0
20
E0
ENDCHAR
STARTCHAR 058
ENCODING 58
SWIDTH 144 0
DWIDTH 2 0
BBX 1 3 0 1
BITMAP
80
00
80
ENDCHAR
STARTCHAR 059
ENCODING 59
SWIDTH 648 0
DWIDTH 9 0
BBX 0 0 0 0
BITMAP
ENDCHAR
STARTCHAR 060
ENCODING 60
SWIDTH 504 0
DWIDTH 7 0
BBX 6 5 0 0
BITMAP
20
60
FC
60
20
ENDCHAR
STARTCHAR 061
ENCODING 61
SWIDTH 288 0
DWIDTH 4 0
BBX 3 3 0 1
BITMAP
E0
00
E0
ENDCHAR
STARTCHAR 062
ENCODING 62
SWIDTH 504 0
DWIDTH 7 0
BBX 6 5 0 0
BITMAP
10
18
FC
18
10
ENDCHAR
STARTCHAR 063
ENCODING 63
SWIDTH 288 0
DWIDTH 4 0
BBX 3 5 0 0
BITMAP
E0
20
40
00
40
ENDCHAR
STARTCHAR 064
ENCODING 64
SWIDTH 360 0
DWIDTH 5 0
BBX 5 5 0 0
BITMAP
20
50
88
50
20
ENDCHAR
STARTCHAR 065
ENCODING 65
SWIDTH 288 0
DWIDTH 4 0
BBX 3 5 0 0
BITMAP
40
A0
E0
A0
A0
ENDCHAR
STARTCHAR 066
ENCODING 66
SWIDTH 288 0
DWIDTH 4 0
BBX 3 5 0 0
BITMAP
C0
A0
C0
A0
C0
ENDCHAR
STARTCHAR 067
ENCODING 67
SWIDTH 288 0
DWIDTH 4 0
BBX 3 5 0 0
BITMAP
60
80
80
80
60
ENDCHAR
STARTCHAR 068
ENCODING 68
SWIDTH 288 0
DWIDTH 4 0
BBX 3 5 0 0
BITMAP
C0
A0
A0
A0
C0
ENDCHAR
STARTCHAR 069
ENCODING 69
SWIDTH 288 0
DWIDTH 4 0
BBX 3 5 0 0
BITMAP
E0
80
C0
80
E0
ENDCHAR
STARTCHAR 070
ENCODING 70
SWIDTH 288 0
DWIDTH 4 0
BBX 3 5 0 0
BITMAP
E0
80
C0
80
80
ENDCHAR
STARTCHAR 071
ENCODING 71
SWIDTH 360 0
DWIDTH 5 0
BBX 4 5 0 0
BITMAP
70
80
B0
90
60
ENDCHAR
STARTCHAR 072
ENCODING 72
SWIDTH 288 0
DWIDTH 4 0
BBX 3 5 0 0
BITMAP
A0
A0
E0
A0
A0
ENDCHAR
STARTCHAR 073
ENCODING 73
SWIDTH 144 0
DWIDTH 2 0
BBX 1 5 0 0
BITMAP
80
80
80
80
80
ENDCHAR
STARTCHAR 074
ENCODING 74
SWIDTH 288 0
DWIDTH 4 0
BBX 3 5 0 0
BITMAP
20
20
20
A0
40
ENDCHAR
STARTCHAR 075
ENCODING 75
SWIDTH 360 0
DWIDTH 5 0
BBX 4 5 0 0
BITMAP
90
A0
C0
A0
90
ENDCHAR
STARTCHAR 076
ENCODING 76
SWIDTH 288 0
DWIDTH 4 0
BBX 3 5 0 0
BITMAP
80
80
80
80
E0
ENDCHAR
STARTCHAR 077
ENCODING 77
SWIDTH 432 0
DWIDTH 6 0
BBX 5 5 0 0
BITMAP
88
D8
A8
88
88
ENDCHAR
STARTCHAR 078
ENCODING 78
SWIDTH 360 0
DWIDTH 5 0
BBX 4 5 0 0
BITMAP
90
D0
B0
90
90
ENDCHAR
STARTCHAR 079
ENCODING 79
SWIDTH 360 0
DWIDTH 5 0
BBX 4 5 0 0
BITMAP
60
90
90
90
60
ENDCHAR
STARTCHAR 080
ENCODING 80
SWIDTH 288 0
DWIDTH 4 0
BBX 3 5 0 0
BITMAP
C0
A0
C0
80
80
ENDCHAR
STARTCHAR 081
ENCODING 81
SWIDTH 360 0
DWIDTH 5 0
BBX 4 5 0 0
BITMAP
40
A0
A0
E0
70
ENDCHAR
STARTCHAR 082
ENCODING 82
SWIDTH 288 0
DWIDTH 4 0
BBX 3 5 0 0
BITMAP
C0
A0
C0
A0
A0
ENDCHAR
STARTCHAR 083
ENCODING 83
SWIDTH 288 0
DWIDTH 4 0
BBX 3 5 0 0
BITMAP
60
80
40
20
C0
ENDCHAR
STARTCHAR 084
ENCODING 84
SWIDTH 288 0
DWIDTH 4 0
BBX 3 5 0 0
BITMAP
E0
40
40
40
40
ENDCHAR
STARTCHAR 085
ENCODING 85
SWIDTH 288 0
DWIDTH 4 0
BBX 3 5 0 0
BITMAP
A0
A0
A0
A0
60
ENDCHAR
STARTCHAR 086
ENCODING 86
SWIDTH 288 0
DWIDTH 4 0
BBX 3 5 0 0
BITMAP
A0
A0
A0
40
40
ENDCHAR
STARTCHAR 087
ENCODING 87
SWIDTH 432 0
DWIDTH 6 0
BBX 5 5 0 0
BITMAP
88
88
A8
A8
50
ENDCHAR
STARTCHAR 088
ENCODING 88
SWIDTH 288 0
DWIDTH 4 0
BBX 3 5 0 0
BITMAP
A0
A0
40
A0
A0
ENDCHAR
STARTCHAR 089
ENCODING 89
SWIDTH 288 0
DWIDTH 4 0
BBX 3 5 0 0
BITMAP
A0
A0
40
40
40
ENDCHAR
STARTCHAR 090
ENCODING 90
SWIDTH 288 0
DWIDTH 4 0
BBX 3 5 0 0
BITMAP
E0
20
40
80
E0
ENDCHAR
STARTCHAR 091
ENCODING 91
SWIDTH 216 0
DWIDTH 3 0
BBX 2 5 0 0
BITMAP
C0
80
80
80
C0
ENDCHAR
STARTCHAR 092
ENCODING 92
SWIDTH 288 0
DWIDTH 4 0
BBX 3 5 0 0
BITMAP
80
80
40
20
20
ENDCHAR
STARTCHAR 093
ENCODING 93
SWIDTH 216 0
DWIDTH 3 0
BBX 2 5 0 0
BITMAP
C0
40
40
40
C0
ENDCHAR
STARTCHAR 094
ENCODING 94
SWIDTH 432 0
DWIDTH 6 0
BBX 5 3 0 2
BITMAP
20
50
88
ENDCHAR
STARTCHAR 095
ENCODING 95
SWIDTH 288 0
DWIDTH 4 0
BBX 3 1 0 0
BITMAP
E0
ENDCHAR
STARTCHAR 096
ENCODING 96
SWIDTH 432 0
DWIDTH 6 0
BBX 5 5 0 0
BITMAP
80
C0
60
30
F8
ENDCHAR
STARTCHAR 097
ENCODING 97
SWIDTH 288 0
DWIDTH 4 0
BBX 3 3 0 0
BITMAP
60
A0
60
ENDCHAR
STARTCHAR 098
ENCODING 98
SWIDTH 288 0
DWIDTH 4 0
BBX 3 5 0 0
BITMAP
80
80
C0
A0
C0
ENDCHAR
STARTCHAR 099
ENCODING 99
SWIDTH 288 0
DWIDTH 4 0
BBX 3 4 0 0
BITMAP
60
80
80
60
ENDCHAR
STARTCHAR 100
ENCODING 100
SWIDTH 288 0
DWIDTH 4 0
BBX 3 5 0 0
BITMAP
20
20
60
A0
60
ENDCHAR
STARTCHAR 101
ENCODING 101
SWIDTH 288 0
DWIDTH 4 0
BBX 3 4 0 0
BITMAP
60
A0
C0
60
ENDCHAR
STARTCHAR 102
ENCODING 102
SWIDTH 288 0
DWIDTH 4 0
BBX 3 5 0 0
BITMAP
60
80
C0
80
80
ENDCHAR
STARTCHAR 103
ENCODING 103
SWIDTH 288 0
DWIDTH 4 0
BBX 3 4 0 0
BITMAP
60
A0
60
C0
ENDCHAR
STARTCHAR 104
ENCODING 104
SWIDTH 288 0
DWIDTH 4 0
BBX 3 5 0 0
BITMAP
80
80
C0
A0
A0
ENDCHAR
STARTCHAR 105
ENCODING 105
SWIDTH 216 0
DWIDTH 3 0
BBX 2 5 0 0
BITMAP
80
00
80
80
40
ENDCHAR
STARTCHAR 106
ENCODING 106
SWIDTH 216 0
DWIDTH 3 0
BBX 2 5 0 0
BITMAP
40
00
40
40
80
ENDCHAR
STARTCHAR 107
ENCODING 107
SWIDTH 288 0
DWIDTH 4 0
BBX 3 5 0 0
BITMAP
80
A0
C0
A0
A0
ENDCHAR
STARTCHAR 108
ENCODING 108
SWIDTH 216 0
DWIDTH 3 0
BBX 2 5 0 0
BITMAP
80
80
80
80
40
ENDCHAR
STARTCHAR 109
ENCODING 109
SWIDTH 432 0
DWIDTH 6 0
BBX 5 3 0 0
BITMAP
D0
A8
88
ENDCHAR
STARTCHAR 110
ENCODING 110
SWIDTH 288 0
DWIDTH 4 0
BBX 3 3 0 0
BITMAP
C0
A0
A0
ENDCHAR
STARTCHAR 111
ENCODING 111
SWIDTH 288 0
DWIDTH 4 0
BBX 3 3 0 0
BITMAP
40
A0
40
ENDCHAR
STARTCHAR 112
ENCODING 112
SWIDTH 288 0
DWIDTH 4 0
BBX 3 4 0 0
BITMAP
C0
A0
C0
80
ENDCHAR
STARTCHAR 113
ENCODING 113
SWIDTH 288 0
DWIDTH 4 0
BBX 3 4 0 0
BITMAP
60
A0
60
20
ENDCHAR
STARTCHAR 114
ENCODING 114
SWIDTH 288 0
DWIDTH 4 0
BBX 3 4 0 0
BITMAP
C0
A0
80
80
ENDCHAR
STARTCHAR 115
ENCODING 115
SWIDTH 288 0
DWIDTH 4 0
BBX 3 4 0 0
BITMAP
60
C0
60
C0
ENDCHAR
STARTCHAR 116
ENCODING 116
SWIDTH 288 0
DWIDTH 4 0
BBX 3 4 0 0
BITMAP
40
E0
40
20
ENDCHAR
STARTCHAR 117
ENCODING 117
SWIDTH 288 0
DWIDTH 4 0
BBX 3 3 0 0
BITMAP
A0
A0
60
ENDCHAR
STARTCHAR 118
ENCODING 118
SWIDTH 288 0
DWIDTH 4 0
BBX 3 3 0 0
BITMAP
A0
A0
40
ENDCHAR
STARTCHAR 119
ENCODING 119
SWIDTH 432 0
DWIDTH 6 0
BBX 5 3 0 0
BITMAP
88
A8
50
ENDCHAR
STARTCHAR 120
ENCODING 120
SWIDTH 288 0
DWIDTH 4 0
BBX 3 3 0 0
BITMAP
A0
40
A0
ENDCHAR
STARTCHAR 121
ENCODING 121
SWIDTH 288 0
DWIDTH 4 0
BBX 3 4 0 0
BITMAP
A0
A0
60
C0
ENDCHAR
STARTCHAR 122
ENCODING 122
SWIDTH 288 0
DWIDTH 4 0
BBX 3 4 0 0
BITMAP
E0
60
C0
E0
ENDCHAR
ENDFONT
